<svg xmlns="http://www.w3.org/2000/svg" viewBox="0 0 612.4 114.8"><path d="M283.41,87.81a22.06,22.06,0,0,1-13.58-9.14c-1.25-1.69-19.35-29.12-25.27-38.09V74.46c0,4.91-.08,8.4,4,11.12v.26H234.88v-.26C239,82.86,239,79.37,239,74.46v-36c0-4.9-1-7.37-5-10v-.26h14.38v.09l29.57,45.15V39.53c0-4.9.08-8.4-4-11v-.26H287.4v.26c-4,2.63-4,6.13-4,11V87.81" fill="#231f20"/><path d="M224.11,56.25c0,17.81-13,30.72-28.22,30.72s-28-12.39-28-30.29c0-16.58,12.66-30.46,28.76-30C212.76,26.58,224.11,40.53,224.11,56.25Zm-45.88.59c0,13,6.43,24.89,18.11,24.89,10.76,0,17.39-11.23,17.39-24.89,0-14-6.74-25.29-17.53-25.29C185.23,31.55,178.23,42.45,178.23,56.84Z" fill="#231f20"/><path d="M336.16,80.93V67.08c0-4-.5-7.95-4.44-9.53v-.26h13.89V85c-4.37,1.12-13.06,2.39-17,2.29-2.46-.06-29.9,0-29.75-29.64.14-27,22.75-30.23,27.94-30.39,5-.15,12.12.58,16.84,2.84v11h-.26c-3.66-5.36-7.71-9.11-15.88-9.11-5.83,0-18.23,5.48-18.23,25.9,0,4.77,1,17.91,11.89,22.74C323.25,81.51,330.59,83.63,336.16,80.93Z" fill="#231f20"/><path d="M603,80.93V67.08c0-4-.5-7.95-4.44-9.53v-.26H612.4V85c-4.37,1.12-13.06,2.39-17,2.29-2.47-.06-29.9,0-29.75-29.64.14-27,22.76-30.23,27.93-30.39,5-.15,12.13.58,16.85,2.84v11h-.26c-3.66-5.36-7.7-9.11-15.88-9.11-5.84,0-18.22,5.48-18.22,25.9,0,4.77,1,17.91,11.88,22.74C590,81.51,597.39,83.63,603,80.93Z" fill="#231f20"/><path d="M360.4,70.84c3.4,6.09,9.55,11.49,15.48,11s10-4.79,10-11.2c0-12.71-24.68-10.34-24.47-28.06.15-12.65,11.46-16.12,19-16.12a36.15,36.15,0,0,1,11.47,2l-.35,10.45-.11,0c-4.54-6.62-7.51-7.91-12.29-7.91a9,9,0,0,0-8.79,8.75c0,13.36,24.85,9.69,24.85,29.69,0,11-9.71,17.31-20.32,17.31-1.72,0-8.71-.63-13.33-3l-1.29-13Z" fill="#231f20"/><path d="M450.87,68.65c0,6.75-3.89,11.67-9.77,14.49-6.15,3-13.09,2.72-19.67,2.72h-14v-.27c4.39-1.67,3.86-8.08,3.86-12.11V40.42c0-4,.61-10.36-3.86-12v-.26h20.08c11.6,0,18.78,4.66,18.78,12.46,0,5.89-3.83,9.59-12.21,12.59C440,54.21,450.87,56.86,450.87,68.65ZM420.58,33.33V81c7.5,1.41,20.37.2,20.2-12.47-.1-6.92-5-12.11-16.91-12.14l1.69-4.29c3.81-.91,10.9-2.32,10.9-10.88C436.46,33.77,426.75,31.33,420.58,33.33Z" fill="#231f20"/><path d="M498.12,38.21h-.25c-2-2.6-4.28-7.26-21.06-5.07V51.37h16.52v8.74h-.26c-1.4-2.54-5.08-3.94-7.79-3.94h-8.47V80.79C498,83.31,501.27,75,502.81,73h.44l-4,12.76H463v-.26c4.5-2.33,4.45-7.12,4.45-11V39.58c0-4,0-9.47-4.45-11.13v-.26h35.12Z" fill="#231f20"/><path d="M564.08,85.74h-7.89c-3-.15-6.78,0-11.52-5.88s-15.49-21.59-15.49-21.59l2.16-4C537,52.76,542,49.62,542,42.13c0-5.66-5-9.08-10.85-9.29a21.65,21.65,0,0,0-5.35.24V73.49c.18,4.44-.76,10.41,3.71,12v.26H512.45v-.26c4.45-2.13,3.58-7.74,3.84-12V40.1c-.26-4.36.62-10-3.84-11.65v-.26h20.82c12.81,0,18.46,6.12,18.46,14.07,0,7.7-6,11.8-13.33,13.83,6.7,9.19,18.4,26.8,25.67,29.51Z" fill="#231f20"/><path d="M166.84,85.49v.27h-9c-4.29,0-7.72-1.83-10.57-5.74L130.4,54.9l14.24-15.33c4.38-4.7,6.11-9.19,0-11.17v-.26h16.58v.09L139.34,52.16C146.07,61.63,158.7,82.13,166.84,85.49Z" fill="#231f20"/><path d="M118.8,40.4c0-3.94.51-10.33-4-12v-.26h17.23v.26c-4.47,1.58-3.94,8.06-3.94,12v33c0,4-.53,10.42,3.94,12.08v.27H114.85v-.27c4.46-1.66,4-8.14,4-12.08Z" fill="#231f20"/><path d="M28.06,50.08l4.4-2.3A9,9,0,0,0,24,45.61,7,7,0,0,1,28.06,50.08Z" fill="#231f20"/><path d="M20.54,56.1a2.27,2.27,0,0,0,1.59-1.6,1.77,1.77,0,0,0-.71-1.8,2.15,2.15,0,0,0-2-.17,2.69,2.69,0,0,0-.86.85,3.28,3.28,0,0,1-1.66-2.09,4.22,4.22,0,0,0,.61,3.79A3,3,0,0,0,20.54,56.1Z" fill="#231f20"/><path d="M36.64,76.4v.08L32,78.87a39.4,39.4,0,0,1,8.05,1.72V64.11L36.64,65.9Z" fill="#231f20"/><path d="M21.07,82.58c-2.47,1.22-4.51,3.52-4.37,6.17,0,2.11,1.81,3.92,3.79,4.86a4.1,4.1,0,0,1-.74-2.5,4.68,4.68,0,0,1,1-2.86,8.47,8.47,0,0,1,8.39-2.47,12.13,12.13,0,0,1,5.78-4.24l-.75-.17C29.84,80.53,24.81,80.63,21.07,82.58Z" fill="#231f20"/><path d="M28.51,78.09h0l5.65-2.94V54l-5.53,2.94-.12,0v8.27a14.07,14.07,0,0,0-3.94.28A3.21,3.21,0,0,0,22.38,68h6.13Z" fill="#231f20"/><path d="M39.1,90.38A6.9,6.9,0,0,1,37,93.65a8.77,8.77,0,0,0,3.6-2.35c.9-1.06,1.53-2.65.73-3.92a2.56,2.56,0,0,0-1.65-1,2.51,2.51,0,0,0-2.33.87,1.87,1.87,0,0,0-.13,2A2.28,2.28,0,0,0,39.1,90.38Z" fill="#231f20"/><path d="M48.65,52.17,54,49.37c0-1,.14-2-.42-2.85a2.53,2.53,0,0,0-2.27-1c-1.8.18-3.24,1.18-4.76,2C48.62,48.25,48.71,50.37,48.65,52.17Z" fill="#231f20"/><path d="M46.08,65.49c0-.9.12-1.9-.48-2.6s-2.21-.54-3,0v8L46.06,69Z" fill="#231f20"/><polygon points="36.64 63.33 40.06 61.54 40.06 50.88 36.64 52.66 36.64 63.33" fill="#231f20"/><path d="M54.26,78.92a6.7,6.7,0,0,0-.6-3c-1.67-2.7-5-3.4-7.82-4.24l0,0c1.94.83,2.56,2.73,2.65,4.54v7.38l0,2.46A9.74,9.74,0,0,0,51,92.33l5.57-2.93a11,11,0,0,1-2.32-6.34Z" fill="#231f20"/><path d="M48.55,63.68v4l0,0,5.73-3,0-2c0-1,.14-2.18-.43-3a2.53,2.53,0,0,0-2.32-1c-1.93.24-3.46,1.39-5.11,2.19A3.09,3.09,0,0,1,48.55,63.68Z" fill="#231f20"/><path d="M0,0V114.8H76.54V0ZM56.68,28a1.74,1.74,0,1,1-1.74-1.74A1.73,1.73,0,0,1,56.68,28Zm-3.82-6.15a1.74,1.74,0,1,1-1.73,1.73A1.73,1.73,0,0,1,52.86,21.81Zm-4.93-1.47a1.74,1.74,0,1,1-1.74,1.73A1.72,1.72,0,0,1,47.93,20.34ZM43.08,22.5a1.74,1.74,0,1,1-1.74,1.74A1.74,1.74,0,0,1,43.08,22.5Zm-7.73-4.61c.58.16,1.14.36,1.71.5h0l-.55-2.06H39l-.56,2.06h0c.58-.14,1.15-.34,1.73-.5v2.43c-.58-.17-1.15-.37-1.73-.51h0L39,22a2.94,2.94,0,0,0-1.23-.25A3,3,0,0,0,36.5,22l.56-2.13h0c-.57.14-1.13.34-1.71.51Zm4.55,6.94a2.17,2.17,0,1,1-2.17-2.17A2.17,2.17,0,0,1,39.9,24.83ZM32.69,22.5A1.74,1.74,0,1,1,31,24.24,1.74,1.74,0,0,1,32.69,22.5Zm-4.85-2.16a1.74,1.74,0,1,1-1.73,1.73A1.73,1.73,0,0,1,27.84,20.34Zm-1.95,13c-.06.29-.25,1.34-.28,1.48s-.06.23-.34.17S24.13,34.7,24,34.7s-.31,0-.26.28a3,3,0,0,0,1.83,1.48,3,3,0,0,0,3.29-1.07,3.29,3.29,0,0,0,.58-2,.39.39,0,0,0-.15-.34.15.15,0,0,0-.17,0c-.19.21-.27.48-.48.68a1.12,1.12,0,0,1-1,.23,1.62,1.62,0,0,1-.91-1.63,1.19,1.19,0,0,1,.5-1,1,1,0,0,1,1-.06c.26.11.45.37.75.38a.2.2,0,0,0,.1-.34A3.82,3.82,0,0,1,28,29.23,2.73,2.73,0,0,1,28.78,27,.19.19,0,0,1,29,27a2.79,2.79,0,0,1,1.66,2.14,3.84,3.84,0,0,1-.3,1.93.25.25,0,0,0,.13.34.32.32,0,0,0,.27-.15c.24-.35.51-.83,1-.87a1.1,1.1,0,0,1,1.07.51A1.88,1.88,0,0,1,33,32.56a1,1,0,0,1-.9.6c-.43.05-.73-.26-1-.48a.18.18,0,0,0-.2,0c-.14.14,0,.35,0,.5a3.05,3.05,0,0,0,2.64,1.92,3.25,3.25,0,0,0,3.14-1.84,2.56,2.56,0,0,0,.27-1.15.22.22,0,0,0-.12-.17c-.27,0-.45.2-.65.33l-.83.62a.2.2,0,0,1-.17,0c-.4-.46-.77-1-1.12-1.46a.19.19,0,0,1,0-.19c.32-.5.68-1,1-1.44.05-.08.12-.14.21-.1.5.32,1,.72,1.47,1,.07,0,.39,0,.24-.33s-.68-1-.77-1.22-.23-.29-.05-.42l1.51-1.05a.14.14,0,0,1,.14,0l1.51,1.05c.18.13.06.25,0,.42s-.63.93-.78,1.22.17.36.24.33c.51-.27,1-.67,1.47-1,.08,0,.16,0,.21.1.35.47.71.94,1,1.44a.21.21,0,0,1,0,.19c-.36.49-.72,1-1.13,1.46a.21.21,0,0,1-.17,0l-.83-.62c-.2-.13-.38-.37-.65-.33a.25.25,0,0,0-.12.17,2.44,2.44,0,0,0,.28,1.15,3.23,3.23,0,0,0,3.13,1.84,3.05,3.05,0,0,0,2.64-1.92c.05-.15.15-.36,0-.5a.18.18,0,0,0-.2,0c-.32.22-.61.53-1,.48a1,1,0,0,1-.92-.6,1.94,1.94,0,0,1,.2-1.71,1.09,1.09,0,0,1,1.07-.51c.47,0,.74.52,1,.87a.33.33,0,0,0,.27.15.25.25,0,0,0,.13-.34,3.84,3.84,0,0,1-.3-1.93A2.79,2.79,0,0,1,46.44,27a.19.19,0,0,1,.24,0,2.76,2.76,0,0,1,.79,2.24,3.7,3.7,0,0,1-1.14,2.09.2.2,0,0,0,.1.34c.3,0,.49-.27.75-.38a1,1,0,0,1,1,.06,1.16,1.16,0,0,1,.49,1,1.6,1.6,0,0,1-.9,1.63,1.12,1.12,0,0,1-1-.23A7.63,7.63,0,0,1,46.3,33a.15.15,0,0,0-.17,0,.43.43,0,0,0-.16.34,3.36,3.36,0,0,0,.59,2A3.07,3.07,0,0,0,51.69,35c0-.27-.17-.28-.26-.28s-1,.2-1.23.26-.31,0-.35-.17-.22-1.19-.28-1.48,0-.35,0-.39l1.28-.71c.34-.2.51-.28.61,0,0,.12.3.79.45,1.21s.45.21.45,0,0-1.34.05-1.58a.3.3,0,0,1,.3-.32c.11,0,1.79-.09,2.06-.08s.27,0,.32.11a.29.29,0,0,1,0,.24L50.34,40a39.44,39.44,0,0,0-25.22,0l-4.77-8.2a.26.26,0,0,1,0-.24c.05-.08.05-.11.32-.11s2,.07,2.07.08.27.08.29.32,0,1.48,0,1.58.33.38.45,0,.41-1.09.45-1.21c.1-.29.27-.21.61,0l1.28.71C25.92,33,26,33,25.89,33.31Zm-3-11.5a1.74,1.74,0,1,1-1.73,1.73A1.73,1.73,0,0,1,22.9,21.81Zm-2.07,4.41A1.74,1.74,0,1,1,19.09,28,1.73,1.73,0,0,1,20.83,26.22Zm-.18,18.21c3-1.3,7.27-1.74,10.32-.35a11.19,11.19,0,0,1,3.71,2.53c.84-.4,1.65-.9,2.48-1.3l1.21,1.9-.1,0L26.15,53.62A7.31,7.31,0,0,0,24,48.12a4.22,4.22,0,0,0-3.87-.86,2.53,2.53,0,0,0-1.72,1.8,2.17,2.17,0,0,0,.47,1.58,4.52,4.52,0,0,1,2.54-.35,3.86,3.86,0,0,1,2,6.66,5.35,5.35,0,0,1-9-3.61C14.12,49.49,16.91,46,20.65,44.43ZM54,93.3l-3.79,2C48,92.7,46.12,90,46,86.54L46,83.73,46,77c-.08-1.33-.12-2.74-1.44-3.54a2.21,2.21,0,0,0-2-.06V82c-4,.09-7.83,1-10.53,3.93a17.19,17.19,0,0,0-1.92,2.43,7.33,7.33,0,0,0-5.86-.07,3.38,3.38,0,0,0-2.07,3.45c.22,1.57,2,2.77,3.57,3.09,3.67.65,7.85,0,10-3l.31-.57a3.56,3.56,0,0,1-1.48-3.72,4.55,4.55,0,0,1,3.65-3.27A5.13,5.13,0,0,1,43,85.74a4.48,4.48,0,0,1,.78,4.8c-1.62,3.7-6,5.36-9.85,6.16a25.28,25.28,0,0,1-14.41-1.12c-2.73-1.18-5.18-3.66-5.37-6.45-.31-3.48,1.91-6.44,5.13-8.21A18.83,18.83,0,0,1,26,78.85V70.19H19.32c0-2.66,1.1-5.42,3.93-6.6A8.58,8.58,0,0,1,26,63.05V55.67l4-2,12.74-6.69L48,44.21c1.69-.87,4.28-1.35,6.07-.32A4.29,4.29,0,0,1,56,45.77c.73,1.41.42,3.22.47,4.85l-.73.38-9.55,5V51.1a2.09,2.09,0,0,0-.75-1.71c-.79-.58-2.08-.22-2.83.16V60.24l5.92-3c1.77-.88,4.2-1.28,6-.22a4.6,4.6,0,0,1,2.3,4.56L56.75,66l-8,4.19h0c2.74.89,5.8,2.13,7.21,4.79s.46,6.3,1,9.25a8.29,8.29,0,0,0,1.92,4l.08,0,2.4-1.27,1.21,1.93Z" fill="#231f20"/></svg>