<?xml version="1.0" encoding="utf-8"?>
<!-- Generator: Adobe Illustrator 23.0.6, SVG Export Plug-In . SVG Version: 6.00 Build 0)  -->
<svg version="1.1" id="Layer_1" xmlns="http://www.w3.org/2000/svg" xmlns:xlink="http://www.w3.org/1999/xlink" x="0px" y="0px"
	 viewBox="0 0 830 271" enable-background="new 0 0 830 271" xml:space="preserve">
<path fill="#FFFFFF" d="M106.55,124.98V96.31h96c0.98,5.05,1.55,11.07,1.55,17.58c0,21.5-5.89,48.13-24.83,67.07
	c-18.43,19.2-41.99,29.44-73.22,29.44c-57.86,0-106.5-47.11-106.5-104.96c0-57.86,48.64-104.96,106.5-104.96
	c32,0,54.79,12.54,71.94,28.93l-20.22,20.22c-12.29-11.52-28.93-20.48-51.71-20.48c-42.24,0-75.27,34.05-75.27,76.29
	s33.03,76.29,75.27,76.29c27.39,0,43.01-11.01,52.99-20.99c8.14-8.13,13.49-19.8,15.57-35.76L106.55,124.98z"/>
<path fill="#FFFFFF" d="M350.39,142.82c0,38.91-30.46,67.59-67.84,67.59c-37.38,0-67.84-28.67-67.84-67.59
	c0-39.17,30.46-67.59,67.84-67.59C319.93,75.23,350.39,103.65,350.39,142.82z M320.69,142.82c0-24.32-17.66-40.96-38.14-40.96
	c-20.48,0-38.15,16.64-38.15,40.96c0,24.06,17.66,40.96,38.15,40.96C303.03,183.78,320.69,166.88,320.69,142.82z"/>
<path fill="#FFFFFF" d="M498.39,142.82c0,38.91-30.46,67.59-67.84,67.59c-37.38,0-67.84-28.67-67.84-67.59
	c0-39.17,30.46-67.59,67.84-67.59C467.93,75.23,498.39,103.65,498.39,142.82z M468.69,142.82c0-24.32-17.66-40.96-38.14-40.96
	c-20.48,0-38.15,16.64-38.15,40.96c0,24.06,17.66,40.96,38.15,40.96C451.03,183.78,468.69,166.88,468.69,142.82z"/>
<path fill="#FFFFFF" d="M640.25,79.33v121.35c0,49.92-29.44,70.4-64.26,70.4c-32.77,0-52.48-22.02-59.91-39.94l25.86-10.75
	c4.61,11.01,15.87,24.07,34.05,24.07c22.27,0,36.1-13.83,36.1-39.68v-9.73h-1.02c-6.66,8.19-19.46,15.36-35.59,15.36
	c-33.79,0-64.77-29.44-64.77-67.33c0-38.15,30.98-67.84,64.77-67.84c16.13,0,28.93,7.17,35.59,15.11h1.02V79.33H640.25z
	 M614.14,143.08c0-23.81-15.87-41.22-36.1-41.22c-20.48,0-37.63,17.41-37.63,41.22c0,23.55,17.15,40.71,37.63,40.71
	C598.26,183.78,614.14,166.63,614.14,143.08z"/>
<path fill="#FFFFFF" d="M690.55,8.31v198h-29.7v-198H690.55z"/>
<path fill="#FFFFFF" d="M805.23,165.09l23.04,15.36c-7.43,11.01-25.35,29.95-56.32,29.95c-38.4,0-67.07-29.7-67.07-67.59
	c0-40.2,28.93-67.59,63.75-67.59c35.07,0,52.23,27.91,57.86,43.01l3.07,7.68l-90.37,37.38c6.91,13.57,17.67,20.48,32.77,20.48
	C787.05,183.78,797.55,176.36,805.23,165.09z M734.31,140.77l60.42-25.09c-3.33-8.45-13.31-14.34-25.09-14.34
	C754.54,101.34,733.54,114.66,734.31,140.77z"/>
</svg>
